<?xml version="1.0" standalone="no"?><!DOCTYPE svg PUBLIC "-//W3C//DTD SVG 1.1//EN" "http://www.w3.org/Graphics/SVG/1.1/DTD/svg11.dtd"><svg class="icon" width="200px" height="200.00px" viewBox="0 0 1024 1024" version="1.1" xmlns="http://www.w3.org/2000/svg"><path d="M697.6 422.4c-108.8 6.4-211.2 6.4-307.2 12.8v6.4h115.2c64 0 128-6.4 185.6-6.4 44.8 0 57.6 32 83.2 57.6v12.8c-102.4 6.4-204.8 12.8-300.8 19.2v6.4h288c-25.6 32-44.8 70.4-89.6 76.8-38.4 6.4-76.8 0-115.2 0v12.8h108.8c-12.8 19.2-19.2 32-25.6 38.4-25.6 19.2-19.2 32 0 57.6 76.8 70.4 147.2 147.2 217.6 217.6 12.8 12.8 32 25.6 6.4 51.2-25.6 19.2-32 0-44.8-12.8-172.8-179.2-345.6-352-518.4-524.8-12.8-12.8-25.6-32-32-44.8-32 19.2-51.2 38.4-76.8 57.6C166.4 320 140.8 185.6 108.8 38.4c147.2 25.6 281.6 51.2 428.8 76.8-25.6 32-38.4 51.2-57.6 70.4 12.8 19.2 25.6 32 44.8 57.6-44.8 6.4-76.8 6.4-108.8 12.8v6.4h102.4c44.8 0 57.6 38.4 83.2 57.6 0 6.4 0 6.4-6.4 12.8-96 6.4-192 12.8-281.6 19.2v12.8h57.6c70.4-6.4 134.4-6.4 204.8-19.2 57.6-6.4 83.2 25.6 121.6 76.8z" fill="#2B2B2B" /><path d="M748.8 633.6c57.6 64 121.6 121.6 179.2 185.6 6.4 6.4 0 25.6-6.4 25.6-6.4 6.4-25.6 6.4-32 0-51.2-64-108.8-134.4-160-198.4 12.8 0 19.2-6.4 19.2-12.8zM812.8 614.4c44.8 32 96 64 140.8 96 6.4 6.4 6.4 19.2 12.8 25.6-12.8 0-25.6 6.4-25.6 0l-134.4-115.2 6.4-6.4zM736 684.8c32 44.8 64 89.6 89.6 140.8 6.4 6.4 0 19.2-6.4 25.6-6.4 0-19.2 0-25.6-6.4-25.6-51.2-51.2-96-76.8-147.2 6.4-6.4 12.8-6.4 19.2-12.8zM857.6 588.8c25.6 6.4 51.2 6.4 83.2 12.8 6.4 0 12.8 12.8 19.2 19.2-6.4 0-19.2 6.4-25.6 6.4-25.6-6.4-51.2-19.2-76.8-25.6v-12.8z" fill="#2B2B2B" /></svg>